<?xml version="1.0" encoding="UTF-8"?>
<!DOCTYPE svg PUBLIC "-//W3C//DTD SVG 1.1//EN" "http://www.w3.org/Graphics/SVG/1.1/DTD/svg11.dtd">
<svg xmlns="http://www.w3.org/2000/svg" version="1.1" width="1000px" height="750px" style="shape-rendering:geometricPrecision; text-rendering:geometricPrecision; image-rendering:optimizeQuality; fill-rule:evenodd; clip-rule:evenodd" xmlns:xlink="http://www.w3.org/1999/xlink">
<g><path style="opacity:1" fill="#0a1627" d="M -0.5,-0.5 C 332.833,-0.5 666.167,-0.5 999.5,-0.5C 999.5,249.5 999.5,499.5 999.5,749.5C 666.167,749.5 332.833,749.5 -0.5,749.5C -0.5,499.5 -0.5,249.5 -0.5,-0.5 Z"/></g>
<g><path style="opacity:1" fill="#f30138" d="M 434.5,115.5 C 452.426,113.088 469.093,116.588 484.5,126C 489.333,128.833 494.167,131.667 499,134.5C 509.893,127.47 521.393,121.637 533.5,117C 562.018,111.16 585.518,119.327 604,141.5C 609.085,149.334 613.918,157.334 618.5,165.5C 680.701,162.867 710.201,192.534 707,254.5C 719.709,261.018 731.376,269.018 742,278.5C 759.615,299.923 763.282,323.59 753,349.5C 748.483,357.87 743.983,366.204 739.5,374.5C 745.636,385.149 751.136,396.149 756,407.5C 762.787,436.806 754.62,460.973 731.5,480C 723.333,484.833 715.167,489.667 707,494.5C 710.216,556.617 680.716,586.117 618.5,583C 612.453,596.04 604.453,607.707 594.5,618C 571.639,635.153 546.972,638.153 520.5,627C 513.415,622.707 506.249,618.54 499,614.5C 486.804,622.681 473.637,628.847 459.5,633C 432.724,636.858 410.891,628.358 394,607.5C 388.915,599.666 384.082,591.666 379.5,583.5C 317.332,586.166 287.832,556.499 291,494.5C 278.291,487.982 266.624,479.982 256,470.5C 239.371,449.726 235.371,426.726 244,401.5C 248.85,392.463 253.684,383.463 258.5,374.5C 254.017,366.204 249.517,357.87 245,349.5C 233.433,317.55 240.6,290.716 266.5,269C 274.667,264.167 282.833,259.333 291,254.5C 286.54,227.227 293.707,203.727 312.5,184C 332.132,168.695 354.465,162.529 379.5,165.5C 385.561,153.204 393.228,142.037 402.5,132C 411.995,124.087 422.662,118.587 434.5,115.5 Z"/></g>
<g><path style="opacity:1" fill="#0c1627" d="M 443.5,166.5 C 424.326,166.83 405.326,166.497 386.5,165.5C 392.173,153.006 400.173,142.172 410.5,133C 427.626,120.576 446.292,117.576 466.5,124C 475.772,127.635 484.439,132.301 492.5,138C 476.279,147.727 459.946,157.227 443.5,166.5 Z"/></g>
<g><path style="opacity:1" fill="#0c1627" d="M 611.5,165.5 C 592.674,166.497 573.674,166.83 554.5,166.5C 538.054,157.227 521.721,147.727 505.5,138C 518.395,128.135 532.895,122.301 549,120.5C 569.402,120.849 586.068,128.849 599,144.5C 603.393,151.387 607.56,158.387 611.5,165.5 Z"/></g>
<g><path style="opacity:1" fill="#0d1627" d="M 541.5,165.5 C 513.167,166.833 484.833,166.833 456.5,165.5C 470.771,157.74 484.937,149.74 499,141.5C 513.046,149.712 527.212,157.712 541.5,165.5 Z"/></g>
<g><path style="opacity:1" fill="#cb0434" d="M 386.5,165.5 C 405.326,166.497 424.326,166.83 443.5,166.5C 424.329,167.828 404.996,167.828 385.5,166.5C 385.624,165.893 385.957,165.56 386.5,165.5 Z"/></g>
<g><path style="opacity:1" fill="#cb0434" d="M 456.5,165.5 C 484.833,166.833 513.167,166.833 541.5,165.5C 542.043,165.56 542.376,165.893 542.5,166.5C 513.5,167.833 484.5,167.833 455.5,166.5C 455.624,165.893 455.957,165.56 456.5,165.5 Z"/></g>
<g><path style="opacity:1" fill="#cc0334" d="M 611.5,165.5 C 612.043,165.56 612.376,165.893 612.5,166.5C 593.004,167.828 573.671,167.828 554.5,166.5C 573.674,166.83 592.674,166.497 611.5,165.5 Z"/></g>
<g><path style="opacity:1" fill="#0c1627" d="M 348.5,172.5 C 357.506,172.334 366.506,172.5 375.5,173C 365.967,189.037 356.634,205.204 347.5,221.5C 331.332,231.419 314.998,241.085 298.5,250.5C 292.552,209.683 309.218,183.683 348.5,172.5 Z"/></g>
<g><path style="opacity:1" fill="#0f1627" d="M 382.5,172.5 C 399.17,172.333 415.837,172.5 432.5,173C 408.082,187.293 383.582,201.46 359,215.5C 359.374,212.725 360.374,210.058 362,207.5C 368.845,195.806 375.678,184.139 382.5,172.5 Z"/></g>
<g><path style="opacity:1" fill="#0b1627" d="M 444.5,172.5 C 480.835,172.333 517.168,172.5 553.5,173C 584.997,190.914 616.33,209.081 647.5,227.5C 664.8,257.963 682.3,288.296 700,318.5C 700.667,355.833 700.667,393.167 700,430.5C 681.959,461.416 663.793,492.249 645.5,523C 614.833,540.667 584.167,558.333 553.5,576C 517.167,576.667 480.833,576.667 444.5,576C 412.589,558.13 381.089,539.63 350,520.5C 332.667,490.5 315.333,460.5 298,430.5C 297.333,393.167 297.333,355.833 298,318.5C 315.581,287.669 333.414,257.003 351.5,226.5C 382.727,208.726 413.727,190.726 444.5,172.5 Z"/></g>
<g><path style="opacity:1" fill="#0f1627" d="M 565.5,173.5 C 581.995,172.338 598.662,172.172 615.5,173C 622.459,184.417 629.293,195.917 636,207.5C 637.626,210.058 638.626,212.725 639,215.5C 614.852,200.845 590.352,186.845 565.5,173.5 Z"/></g>
<g><path style="opacity:1" fill="#0c1627" d="M 622.5,173.5 C 642.278,170.022 660.612,173.855 677.5,185C 697.478,202.433 704.812,224.267 699.5,250.5C 683.5,241.167 667.5,231.833 651.5,222.5C 642.059,205.939 632.392,189.605 622.5,173.5 Z"/></g>
<g><path style="opacity:1" fill="#0e1627" d="M 298.5,306.5 C 297.504,290.342 297.17,274.009 297.5,257.5C 310.612,250.227 323.612,242.727 336.5,235C 337.759,234.018 339.092,233.685 340.5,234C 326.109,257.949 312.109,282.115 298.5,306.5 Z"/></g>
<g><path style="opacity:1" fill="#0e1627" d="M 700.5,257.5 C 700.83,274.009 700.496,290.342 699.5,306.5C 685.765,282.031 671.765,257.698 657.5,233.5C 671.625,241.082 685.958,249.082 700.5,257.5 Z"/></g>
<g><path style="opacity:1" fill="#f60138" d="M 556.5,247.5 C 574.597,246.348 592.264,248.514 609.5,254C 631.224,265.167 637.057,282 627,304.5C 617.105,324.099 603.938,341.265 587.5,356C 564.835,376.012 539.502,392.012 511.5,404C 538.608,406.474 558.774,419.641 572,443.5C 582.559,461.139 587.059,480.139 585.5,500.5C 584.998,501.521 584.332,501.688 583.5,501C 578.882,479.597 570.049,460.097 557,442.5C 538.806,421.716 515.973,412.382 488.5,414.5C 475.667,437.5 462.833,460.5 450,483.5C 445.676,488.714 440.176,491.214 433.5,491C 432.549,490.282 432.383,489.449 433,488.5C 445.96,465.414 458.794,442.247 471.5,419C 461.285,420.767 450.952,421.934 440.5,422.5C 440.178,420.278 440.845,418.444 442.5,417C 453.947,416.065 465.114,413.899 476,410.5C 497.706,370.92 519.54,331.42 541.5,292C 545.715,289.056 550.382,287.889 555.5,288.5C 535.77,327.792 515.103,366.625 493.5,405C 532.142,391.246 565.308,369.079 593,338.5C 602.564,328.044 609.564,316.044 614,302.5C 618.3,286.271 613.133,274.104 598.5,266C 579.116,258.467 559.116,256.467 538.5,260C 481.931,270.529 433.765,296.362 394,337.5C 388.815,343.032 384.815,349.366 382,356.5C 379.135,365.258 381.968,371.091 390.5,374C 411.147,375.677 430.48,371.343 448.5,361C 466.683,351.223 482.683,338.557 496.5,323C 497.448,322.517 498.448,322.351 499.5,322.5C 499.628,324.655 499.128,326.655 498,328.5C 490.849,337.316 482.683,345.149 473.5,352C 452.377,367.895 429.044,379.561 403.5,387C 363.885,390.892 356.052,376.725 380,344.5C 427.318,291.42 486.152,259.087 556.5,247.5 Z"/></g>
<g><path style="opacity:1" fill="#8e0930" d="M 297.5,257.5 C 297.17,274.009 297.504,290.342 298.5,306.5C 298.217,307.289 297.717,307.956 297,308.5C 296.172,291.328 296.338,274.328 297.5,257.5 Z"/></g>
<g><path style="opacity:1" fill="#8e0930" d="M 700.5,257.5 C 701.662,274.328 701.828,291.328 701,308.5C 700.283,307.956 699.783,307.289 699.5,306.5C 700.496,290.342 700.83,274.009 700.5,257.5 Z"/></g>
<g><path style="opacity:1" fill="#0c1627" d="M 289.5,262.5 C 290.497,281.326 290.83,300.326 290.5,319.5C 281.683,335.801 272.35,351.801 262.5,367.5C 251.806,354.255 246.139,339.088 245.5,322C 246.199,302.935 253.866,287.268 268.5,275C 275.197,270.318 282.197,266.152 289.5,262.5 Z"/></g>
<g><path style="opacity:1" fill="#4d0f2b" d="M 289.5,262.5 C 289.56,261.957 289.893,261.624 290.5,261.5C 291.828,280.996 291.828,300.329 290.5,319.5C 290.83,300.326 290.497,281.326 289.5,262.5 Z"/></g>
<g><path style="opacity:1" fill="#4f0e2c" d="M 708.5,262.5 C 707.503,281.326 707.17,300.326 707.5,319.5C 706.172,300.329 706.172,280.996 707.5,261.5C 708.107,261.624 708.44,261.957 708.5,262.5 Z"/></g>
<g><path style="opacity:1" fill="#0c1627" d="M 708.5,262.5 C 744.439,278.378 757.939,305.378 749,343.5C 745.258,351.989 740.758,359.989 735.5,367.5C 725.65,351.801 716.317,335.801 707.5,319.5C 707.17,300.326 707.503,281.326 708.5,262.5 Z"/></g>
<g><path style="opacity:1" fill="#4e0f2b" d="M 289.5,415.5 C 290.833,388.167 290.833,360.833 289.5,333.5C 289.783,332.711 290.283,332.044 291,331.5C 291.667,360.167 291.667,388.833 291,417.5C 290.283,416.956 289.783,416.289 289.5,415.5 Z"/></g>
<g><path style="opacity:1" fill="#4c0f2b" d="M 708.5,333.5 C 707.167,360.833 707.167,388.167 708.5,415.5C 708.217,416.289 707.717,416.956 707,417.5C 706.333,388.833 706.333,360.167 707,331.5C 707.717,332.044 708.217,332.711 708.5,333.5 Z"/></g>
<g><path style="opacity:1" fill="#0d1627" d="M 289.5,333.5 C 290.833,360.833 290.833,388.167 289.5,415.5C 281.576,401.985 273.909,388.318 266.5,374.5C 273.909,360.682 281.576,347.015 289.5,333.5 Z"/></g>
<g><path style="opacity:1" fill="#0d1627" d="M 708.5,333.5 C 716.424,347.015 724.091,360.682 731.5,374.5C 724.091,388.318 716.424,401.985 708.5,415.5C 707.167,388.167 707.167,360.833 708.5,333.5 Z"/></g>
<g><path style="opacity:1" fill="#0c1627" d="M 290.5,429.5 C 290.83,448.674 290.497,467.674 289.5,486.5C 248.409,467.053 236.575,436.386 254,394.5C 256.847,390.13 259.68,385.797 262.5,381.5C 272.35,397.199 281.683,413.199 290.5,429.5 Z"/></g>
<g><path style="opacity:1" fill="#0c1627" d="M 708.5,486.5 C 707.503,467.674 707.17,448.674 707.5,429.5C 716.317,413.199 725.65,397.199 735.5,381.5C 745.88,393.933 751.547,408.266 752.5,424.5C 752.358,446.618 743.358,464.118 725.5,477C 719.806,480.179 714.139,483.345 708.5,486.5 Z"/></g>
<g><path style="opacity:1" fill="#500e2b" d="M 290.5,429.5 C 291.828,448.671 291.828,468.004 290.5,487.5C 289.893,487.376 289.56,487.043 289.5,486.5C 290.497,467.674 290.83,448.674 290.5,429.5 Z"/></g>
<g><path style="opacity:1" fill="#4e0e2c" d="M 707.5,429.5 C 707.17,448.674 707.503,467.674 708.5,486.5C 708.44,487.043 708.107,487.376 707.5,487.5C 706.172,468.004 706.172,448.671 707.5,429.5 Z"/></g>
<g><path style="opacity:1" fill="#8e0930" d="M 298.5,442.5 C 297.504,458.658 297.17,474.991 297.5,491.5C 296.338,474.672 296.172,457.672 297,440.5C 297.717,441.044 298.217,441.711 298.5,442.5 Z"/></g>
<g><path style="opacity:1" fill="#8e0930" d="M 700.5,491.5 C 700.83,474.991 700.496,458.658 699.5,442.5C 699.783,441.711 700.283,441.044 701,440.5C 701.828,457.672 701.662,474.672 700.5,491.5 Z"/></g>
<g><path style="opacity:1" fill="#0e1627" d="M 298.5,442.5 C 312.109,466.885 326.109,491.051 340.5,515C 339.092,515.315 337.759,514.982 336.5,514C 323.612,506.273 310.612,498.773 297.5,491.5C 297.17,474.991 297.504,458.658 298.5,442.5 Z"/></g>
<g><path style="opacity:1" fill="#0e1627" d="M 699.5,442.5 C 700.496,458.658 700.83,474.991 700.5,491.5C 686.334,499.911 672.001,507.744 657.5,515C 671.891,491.051 685.891,466.885 699.5,442.5 Z"/></g>
<g><path style="opacity:1" fill="#0c1627" d="M 297.5,498.5 C 313.941,507.557 330.275,516.89 346.5,526.5C 356.041,543.082 365.707,559.582 375.5,576C 347.259,580.704 324.426,571.871 307,549.5C 298.255,533.606 295.089,516.606 297.5,498.5 Z"/></g>
<g><path style="opacity:1" fill="#0c1627" d="M 698.5,498.5 C 705.381,530.584 694.381,554.75 665.5,571C 651.593,576.123 637.26,577.79 622.5,576C 632.033,559.963 641.366,543.796 650.5,527.5C 666.564,517.808 682.564,508.141 698.5,498.5 Z"/></g>
<g><path style="opacity:1" fill="#0f1627" d="M 357.5,532.5 C 382.473,546.988 407.473,561.488 432.5,576C 415.833,576.667 399.167,576.667 382.5,576C 373.911,561.595 365.578,547.095 357.5,532.5 Z"/></g>
<g><path style="opacity:1" fill="#0f1627" d="M 639.5,532.5 C 640.525,532.897 640.692,533.563 640,534.5C 631.707,548.251 623.541,562.084 615.5,576C 598.833,576.667 582.167,576.667 565.5,576C 590.394,561.726 615.061,547.226 639.5,532.5 Z"/></g>
<g><path style="opacity:1" fill="#bc0433" d="M 443.5,582.5 C 424.326,582.17 405.326,582.503 386.5,583.5C 385.957,583.44 385.624,583.107 385.5,582.5C 404.996,581.172 424.329,581.172 443.5,582.5 Z"/></g>
<g><path style="opacity:1" fill="#cb0434" d="M 541.5,583.5 C 513.167,582.167 484.833,582.167 456.5,583.5C 455.957,583.44 455.624,583.107 455.5,582.5C 484.5,581.167 513.5,581.167 542.5,582.5C 542.376,583.107 542.043,583.44 541.5,583.5 Z"/></g>
<g><path style="opacity:1" fill="#cb0434" d="M 554.5,582.5 C 573.671,581.172 593.004,581.172 612.5,582.5C 612.376,583.107 612.043,583.44 611.5,583.5C 592.674,582.503 573.674,582.17 554.5,582.5 Z"/></g>
<g><path style="opacity:1" fill="#0c1627" d="M 443.5,582.5 C 459.946,591.773 476.279,601.273 492.5,611C 479.107,621.355 463.94,627.188 447,628.5C 427.376,627.688 411.376,619.688 399,604.5C 394.822,597.472 390.655,590.472 386.5,583.5C 405.326,582.503 424.326,582.17 443.5,582.5 Z"/></g>
<g><path style="opacity:1" fill="#0d1627" d="M 456.5,583.5 C 484.833,582.167 513.167,582.167 541.5,583.5C 527.212,591.288 513.046,599.288 499,607.5C 484.937,599.26 470.771,591.26 456.5,583.5 Z"/></g>
<g><path style="opacity:1" fill="#0c1627" d="M 554.5,582.5 C 573.674,582.17 592.674,582.503 611.5,583.5C 605.827,595.994 597.827,606.828 587.5,616C 569.175,628.666 549.508,631.332 528.5,624C 520.347,620.426 512.68,616.093 505.5,611C 521.861,601.488 538.194,591.988 554.5,582.5 Z"/></g>
</svg>
